<svg xmlns="http://www.w3.org/2000/svg" viewBox="0 0 24 24" shape-rendering="crispEdges" role="img" aria-label="clicklog logo">
  <rect x="19" y="3" width="1" height="1" fill="#6366F1"/>
  <rect x="16" y="4" width="1" height="1" fill="#6366F1"/>
  <rect x="19" y="4" width="1" height="1" fill="#6366F1"/>
  <rect x="22" y="4" width="1" height="1" fill="#6366F1"/>
  <rect x="17" y="5" width="1" height="1" fill="#6366F1"/>
  <rect x="19" y="5" width="1" height="1" fill="#6366F1"/>
  <rect x="21" y="5" width="1" height="1" fill="#6366F1"/>
  <rect x="6" y="9" width="13" height="1" fill="#3B2418"/>
  <rect x="4" y="10" width="4" height="1" fill="#3B2418"/>
  <rect x="8" y="10" width="11" height="1" fill="#A9764E"/>
  <rect x="19" y="10" width="2" height="1" fill="#3B2418"/>
  <rect x="3" y="11" width="1" height="1" fill="#3B2418"/>
  <rect x="4" y="11" width="1" height="1" fill="#F2DDAE"/>
  <rect x="5" y="11" width="2" height="1" fill="#CE9E68"/>
  <rect x="7" y="11" width="1" height="1" fill="#F2DDAE"/>
  <rect x="8" y="11" width="1" height="1" fill="#3B2418"/>
  <rect x="9" y="11" width="3" height="1" fill="#8A5A3B"/>
  <rect x="12" y="11" width="1" height="1" fill="#5A3A28"/>
  <rect x="13" y="11" width="5" height="1" fill="#8A5A3B"/>
  <rect x="18" y="11" width="1" height="1" fill="#5A3A28"/>
  <rect x="19" y="11" width="2" height="1" fill="#A9764E"/>
  <rect x="21" y="11" width="1" height="1" fill="#3B2418"/>
  <rect x="2" y="12" width="1" height="1" fill="#3B2418"/>
  <rect x="3" y="12" width="1" height="1" fill="#F2DDAE"/>
  <rect x="4" y="12" width="4" height="1" fill="#CE9E68"/>
  <rect x="8" y="12" width="1" height="1" fill="#F2DDAE"/>
  <rect x="9" y="12" width="1" height="1" fill="#3B2418"/>
  <rect x="10" y="12" width="2" height="1" fill="#8A5A3B"/>
  <rect x="12" y="12" width="1" height="1" fill="#5A3A28"/>
  <rect x="13" y="12" width="5" height="1" fill="#8A5A3B"/>
  <rect x="18" y="12" width="1" height="1" fill="#5A3A28"/>
  <rect x="19" y="12" width="2" height="1" fill="#8A5A3B"/>
  <rect x="21" y="12" width="1" height="1" fill="#3B2418"/>
  <rect x="2" y="13" width="1" height="1" fill="#3B2418"/>
  <rect x="3" y="13" width="1" height="1" fill="#CE9E68"/>
  <rect x="4" y="13" width="4" height="1" fill="#F2DDAE"/>
  <rect x="8" y="13" width="1" height="1" fill="#CE9E68"/>
  <rect x="9" y="13" width="1" height="1" fill="#3B2418"/>
  <rect x="10" y="13" width="2" height="1" fill="#8A5A3B"/>
  <rect x="12" y="13" width="1" height="1" fill="#5A3A28"/>
  <rect x="13" y="13" width="8" height="1" fill="#8A5A3B"/>
  <rect x="21" y="13" width="1" height="1" fill="#3B2418"/>
  <rect x="2" y="14" width="1" height="1" fill="#3B2418"/>
  <rect x="3" y="14" width="1" height="1" fill="#CE9E68"/>
  <rect x="4" y="14" width="1" height="1" fill="#F2DDAE"/>
  <rect x="5" y="14" width="2" height="1" fill="#5A3A28"/>
  <rect x="7" y="14" width="1" height="1" fill="#F2DDAE"/>
  <rect x="8" y="14" width="1" height="1" fill="#CE9E68"/>
  <rect x="9" y="14" width="1" height="1" fill="#F2DDAE"/>
  <rect x="10" y="14" width="11" height="1" fill="#8A5A3B"/>
  <rect x="21" y="14" width="1" height="1" fill="#3B2418"/>
  <rect x="2" y="15" width="1" height="1" fill="#3B2418"/>
  <rect x="3" y="15" width="1" height="1" fill="#CE9E68"/>
  <rect x="4" y="15" width="1" height="1" fill="#F2DDAE"/>
  <rect x="5" y="15" width="2" height="1" fill="#5A3A28"/>
  <rect x="7" y="15" width="1" height="1" fill="#F2DDAE"/>
  <rect x="8" y="15" width="1" height="1" fill="#CE9E68"/>
  <rect x="9" y="15" width="1" height="1" fill="#F2DDAE"/>
  <rect x="10" y="15" width="11" height="1" fill="#8A5A3B"/>
  <rect x="21" y="15" width="1" height="1" fill="#3B2418"/>
  <rect x="2" y="16" width="1" height="1" fill="#3B2418"/>
  <rect x="3" y="16" width="1" height="1" fill="#CE9E68"/>
  <rect x="4" y="16" width="4" height="1" fill="#F2DDAE"/>
  <rect x="8" y="16" width="1" height="1" fill="#CE9E68"/>
  <rect x="9" y="16" width="1" height="1" fill="#3B2418"/>
  <rect x="10" y="16" width="6" height="1" fill="#8A5A3B"/>
  <rect x="16" y="16" width="1" height="1" fill="#5A3A28"/>
  <rect x="17" y="16" width="4" height="1" fill="#8A5A3B"/>
  <rect x="21" y="16" width="1" height="1" fill="#3B2418"/>
  <rect x="2" y="17" width="1" height="1" fill="#3B2418"/>
  <rect x="3" y="17" width="1" height="1" fill="#F2DDAE"/>
  <rect x="4" y="17" width="4" height="1" fill="#CE9E68"/>
  <rect x="8" y="17" width="1" height="1" fill="#F2DDAE"/>
  <rect x="9" y="17" width="1" height="1" fill="#3B2418"/>
  <rect x="10" y="17" width="4" height="1" fill="#8A5A3B"/>
  <rect x="14" y="17" width="1" height="1" fill="#5A3A28"/>
  <rect x="15" y="17" width="1" height="1" fill="#8A5A3B"/>
  <rect x="16" y="17" width="1" height="1" fill="#5A3A28"/>
  <rect x="17" y="17" width="4" height="1" fill="#8A5A3B"/>
  <rect x="21" y="17" width="1" height="1" fill="#3B2418"/>
  <rect x="3" y="18" width="1" height="1" fill="#3B2418"/>
  <rect x="4" y="18" width="1" height="1" fill="#F2DDAE"/>
  <rect x="5" y="18" width="2" height="1" fill="#CE9E68"/>
  <rect x="7" y="18" width="1" height="1" fill="#F2DDAE"/>
  <rect x="8" y="18" width="1" height="1" fill="#3B2418"/>
  <rect x="9" y="18" width="5" height="1" fill="#8A5A3B"/>
  <rect x="14" y="18" width="1" height="1" fill="#5A3A28"/>
  <rect x="15" y="18" width="1" height="1" fill="#8A5A3B"/>
  <rect x="16" y="18" width="1" height="1" fill="#5A3A28"/>
  <rect x="17" y="18" width="2" height="1" fill="#8A5A3B"/>
  <rect x="19" y="18" width="2" height="1" fill="#5A3A28"/>
  <rect x="21" y="18" width="1" height="1" fill="#3B2418"/>
  <rect x="4" y="19" width="4" height="1" fill="#3B2418"/>
  <rect x="8" y="19" width="11" height="1" fill="#5A3A28"/>
  <rect x="19" y="19" width="2" height="1" fill="#3B2418"/>
  <rect x="6" y="20" width="13" height="1" fill="#3B2418"/>
</svg>
